<svg width="12" height="8" viewBox="0 0 12 8" fill="none" xmlns="http://www.w3.org/2000/svg">
<path d="M5.99316 7.48779C5.84928 7.48779 5.71647 7.46012 5.59473 7.40479C5.47298 7.34945 5.354 7.26367 5.23779 7.14746L0.31543 2.17529C0.132812 1.99268 0.0415039 1.77132 0.0415039 1.51123C0.0415039 1.24007 0.132812 1.01042 0.31543 0.822266C0.503581 0.634115 0.730469 0.540039 0.996094 0.540039C1.26172 0.540039 1.49691 0.642415 1.70166 0.847168L5.99316 5.20508L10.2847 0.847168C10.4894 0.642415 10.7246 0.540039 10.9902 0.540039C11.2559 0.540039 11.48 0.634115 11.6626 0.822266C11.8507 1.01042 11.9448 1.24007 11.9448 1.51123C11.9448 1.77132 11.8535 1.99268 11.6709 2.17529L6.74854 7.14746C6.53271 7.37435 6.28092 7.48779 5.99316 7.48779Z" fill="#3C3C43"/>
</svg>
